<svg width="120" height="110" viewBox="0 0 120 110" fill="none" xmlns="http://www.w3.org/2000/svg">
<g clip-path="url(#clip0_134_180)">
<path d="M52.7708 7.54112C54.0417 5.00596 53.0833 1.89073 50.6458 0.58018C48.2083 -0.730367 45.1667 0.257914 43.8958 2.77159L24.5 41.2501H6.66667C2.97917 41.2501 0 44.3224 0 48.1251C0 51.9278 2.97917 55.0001 6.66667 55.0001L17.4792 99.5802C18.9583 105.703 24.2917 110 30.4167 110H89.5833C95.7083 110 101.042 105.703 102.521 99.5802L113.333 55.0001C117.021 55.0001 120 51.9278 120 48.1251C120 44.3224 117.021 41.2501 113.333 41.2501H95.5L76.1042 2.77159C74.8333 0.257914 71.8125 -0.730367 69.3542 0.58018C66.8958 1.89073 65.9583 5.00596 67.2292 7.54112L84.2292 41.2501H35.7708L52.7708 7.54112ZM40 65.3126V85.9376C40 87.8282 38.5 89.3751 36.6667 89.3751C34.8333 89.3751 33.3333 87.8282 33.3333 85.9376V65.3126C33.3333 63.422 34.8333 61.8751 36.6667 61.8751C38.5 61.8751 40 63.422 40 65.3126ZM60 61.8751C61.8333 61.8751 63.3333 63.422 63.3333 65.3126V85.9376C63.3333 87.8282 61.8333 89.3751 60 89.3751C58.1667 89.3751 56.6667 87.8282 56.6667 85.9376V65.3126C56.6667 63.422 58.1667 61.8751 60 61.8751ZM86.6667 65.3126V85.9376C86.6667 87.8282 85.1667 89.3751 83.3333 89.3751C81.5 89.3751 80 87.8282 80 85.9376V65.3126C80 63.422 81.5 61.8751 83.3333 61.8751C85.1667 61.8751 86.6667 63.422 86.6667 65.3126Z" fill="#00965F"/>
</g>
<defs>
<clipPath id="clip0_134_180">
<rect width="120" height="110" fill="white"/>
</clipPath>
</defs>
</svg>
