<svg width="55" height="54" viewBox="0 0 55 54" fill="none" xmlns="http://www.w3.org/2000/svg">
<path d="M53.3971 27.39C53.3971 39.11 53.9371 51.1 53.9371 51.1C53.9667 51.3797 53.9369 51.6626 53.8497 51.93C53.7625 52.1974 53.6199 52.4435 53.4311 52.652C53.2424 52.8606 53.0117 53.027 52.7543 53.1404C52.4969 53.2538 52.2184 53.3116 51.9371 53.31H3.38714C2.29714 53.31 1.54714 52.31 1.38714 51.1C0.396862 42.5064 -0.0640082 33.8601 0.0071362 25.21C0.0071362 9.56 1.40714 2.21 1.40714 2.21C1.58714 0.91 2.30714 0 3.38714 0H52.0071C52.2843 0.0114757 52.5565 0.0780279 52.8077 0.195775C53.0589 0.313523 53.2842 0.480109 53.4703 0.685819C53.6565 0.891529 53.7998 1.13225 53.892 1.39393C53.9842 1.65562 54.0233 1.93303 54.0071 2.21C54.0071 2.21 53.3971 15.67 53.3971 27.39Z" fill="url(#paint0_linear_124_640)"/>
<path d="M28.0072 40.55C27.1672 41.7014 26.2694 42.8095 25.3172 43.87V43.87C23.7616 44.324 22.1476 44.5464 20.5272 44.53V44.53C21.5089 45.0321 22.5555 45.3956 23.6372 45.61V45.61C22.7078 46.4765 21.7039 47.2595 20.6372 47.95V47.95C22.6559 47.496 24.6014 46.7622 26.4172 45.77V45.77C27.2033 45.811 27.9915 45.764 28.7672 45.63C28.5995 45.0957 28.4659 44.5512 28.3672 44V44C29.8325 42.8657 31.216 41.6292 32.5072 40.3V40.3C31.1459 41.271 29.7 42.1178 28.1872 42.83V42.83C28.1072 42.06 28.0672 41.41 28.0072 40.55Z" fill="white"/>
<path d="M22.5871 16C21.9151 16.9164 21.3827 17.9274 21.0071 19V19C24.2771 19.5002 27.4187 20.6312 30.2571 22.33V22.33C27.4579 21.7414 24.5888 21.5562 21.7371 21.78V21.78C21.0563 21.7913 20.3814 21.9094 19.7371 22.13V22.13C18.8397 24.4553 18.1894 26.8686 17.7971 29.33V29.33C16.9771 27.33 15.7971 23.42 15.7971 23.42C13.5371 24.63 8.32715 29.53 8.32715 29.53C9.75898 26.4403 11.7107 23.6193 14.0971 21.19V21.19C13.0971 20.19 10.4771 19.67 8.55715 19.59C10.3426 19.0188 12.1948 18.6826 14.0671 18.59V18.59C15.1175 18.5524 16.169 18.5724 17.2171 18.65V18.65C18.8215 17.4318 20.6443 16.5323 22.5871 16V16Z" fill="white"/>
<path d="M17.4071 44.11C15.5393 43.4577 13.8339 42.4107 12.4071 41.04C12.8746 39.7521 13.5101 38.5315 14.2971 37.41V37.41C12.6771 37.65 11.4871 37.83 10.0871 38.1C8.9943 36.0446 8.24124 33.8259 7.85713 31.53V31.53C7.50258 33.8834 7.50258 36.2766 7.85713 38.63V38.63C6.74765 38.9204 5.66399 39.3017 4.61713 39.77V39.77C5.99805 40.6428 7.43068 41.4309 8.90713 42.13V42.13C9.69035 43.8796 10.808 45.4592 12.1971 46.78V46.78C11.8516 45.6304 11.7494 44.4213 11.8971 43.23V43.23C13.6853 43.7722 15.539 44.0683 17.4071 44.11V44.11Z" fill="white"/>
<path d="M42.7671 13.76C39.3071 15.76 38.2471 15.97 34.4771 18.22C36.072 16.5593 37.5144 14.7588 38.7871 12.84C34.7184 13.0107 30.6676 13.4786 26.6671 14.24V14.24C30.6763 12.3313 34.9298 10.9852 39.3071 10.24C38.5471 9.18999 32.3871 5.84999 30.8571 5.23999C35.7371 5.61999 41.6971 7.43999 44.5871 9.23999C46.037 8.89466 47.5176 8.69369 49.0071 8.63999V8.63999C48.4756 9.85925 47.5444 10.861 46.3671 11.48V11.48C46.9471 13.02 45.5671 21.48 44.4371 23.72C44.4071 20.17 44.0971 15.7 42.7671 13.76Z" fill="white"/>
<defs>
<linearGradient id="paint0_linear_124_640" x1="26.9771" y1="-14.94" x2="26.9771" y2="51.64" gradientUnits="userSpaceOnUse">
<stop stop-color="#00965F"/>
<stop offset="0.3" stop-color="#8AC9AD"/>
<stop offset="0.55" stop-color="#00965F"/>
<stop offset="0.84" stop-color="#00774A"/>
<stop offset="0.89" stop-color="#008053"/>
<stop offset="0.98" stop-color="#00986A"/>
<stop offset="1" stop-color="#009E70"/>
</linearGradient>
</defs>
</svg>
