<svg width="120" height="110" viewBox="0 0 120 110" fill="none" xmlns="http://www.w3.org/2000/svg">
<path d="M11.0435 9.04474C11.606 7.73419 12.8435 6.98224 14.0998 7.1756L59.9998 13.7498L105.9 7.1756C107.156 7.00372 108.394 7.75568 108.956 9.04474L116.775 26.9627C118.462 30.8084 116.662 35.4705 113.062 36.6522L82.4248 46.6854C79.8185 47.5447 77.0248 46.2772 75.6373 43.6131L59.9998 13.7498L44.3623 43.6131C42.9748 46.2772 40.181 47.5447 37.5748 46.6854L6.95602 36.6522C3.33727 35.4705 1.55602 30.8084 3.24352 26.9627L11.0435 9.04474ZM60.206 27.4998L70.4998 47.1365C73.2935 52.4647 78.8623 54.9998 84.0935 53.2811L108 45.4608V81.3397C108 86.0662 105.187 90.1912 101.175 91.3514L62.906 102.308C60.9935 102.867 58.9873 102.867 57.0935 102.308L18.8248 91.3514C14.8123 90.1697 11.9998 86.0447 11.9998 81.3182V45.4393L35.9248 53.2811C41.1373 54.9998 46.7248 52.4647 49.5185 47.1365L59.7935 27.4998H60.206Z" fill="#00965F"/>
</svg>
