<svg width="25" height="25" viewBox="0 0 25 25" fill="none" xmlns="http://www.w3.org/2000/svg">
<path d="M7.03109 10.1562C6.16683 10.1562 5.46859 10.8496 5.46859 11.6748C5.46859 12.583 6.16683 13.2812 7.03109 13.2812C7.89535 13.2812 8.54965 12.5854 8.54965 11.7188C8.54965 10.8521 7.90023 10.1562 7.03109 10.1562ZM12.4998 10.1123C11.6331 10.1123 10.9813 10.8081 10.9813 11.6748C10.9813 12.5415 11.6771 13.1934 12.4998 13.1934C13.3226 13.1934 14.0184 12.4976 14.0184 11.6748C14.0184 10.8521 13.369 10.1123 12.4998 10.1123ZM17.9686 10.1562C17.1019 10.1562 16.45 10.8521 16.45 11.7188C16.45 12.5854 17.1458 13.2812 17.9686 13.2812C18.8353 13.2812 19.5306 12.5854 19.5306 11.7188C19.5311 10.8496 18.8377 10.1562 17.9686 10.1562ZM12.4998 1.51855C5.59554 1.51855 0.0437853 6.06543 0.0437853 11.6748C0.0437853 14 1.01595 16.1304 2.62728 17.8418C1.90121 19.7705 0.387535 21.4004 0.363121 21.4185C0.0396838 21.7603 -0.0457166 22.2607 0.13734 22.688C0.283922 23.1543 0.701988 23.4375 1.17171 23.4375C4.17416 23.4375 6.49886 22.1802 7.96371 21.1792C9.37338 21.6187 10.9012 21.875 12.4998 21.875C19.4041 21.875 24.9559 17.3276 24.9559 11.7627C24.9559 6.19775 19.4041 1.51855 12.4998 1.51855ZM12.4998 19.5312C11.1937 19.5312 9.90609 19.3298 8.67367 18.9395L7.56283 18.5916L6.61117 19.2627C5.91537 19.7568 4.95736 20.3066 3.80404 20.6787C4.1641 20.0869 4.5057 19.4214 4.77425 18.7134L5.29281 17.3462L4.28597 16.2783C3.40853 15.3369 2.34652 13.7793 2.34652 11.7188C2.34652 7.40967 6.89925 3.90625 12.4588 3.90625C18.0184 3.90625 22.5711 7.40967 22.5711 11.7188C22.5711 16.0278 18.1053 19.5312 12.4998 19.5312Z" fill="white"/>
</svg>
