<svg width="48" height="48" viewBox="0 0 48 48" fill="none" xmlns="http://www.w3.org/2000/svg">
<path d="M17.7 32.85C16.9333 32.85 16.2917 32.5917 15.775 32.075C15.2583 31.5583 15 30.9167 15 30.15C15 29.3833 15.2583 28.7417 15.775 28.225C16.2917 27.7083 16.9333 27.45 17.7 27.45C18.4667 27.45 19.1083 27.7083 19.625 28.225C20.1417 28.7417 20.4 29.3833 20.4 30.15C20.4 30.9167 20.1417 31.5583 19.625 32.075C19.1083 32.5917 18.4667 32.85 17.7 32.85ZM30.35 32.85C29.5833 32.85 28.9417 32.5917 28.425 32.075C27.9083 31.5583 27.65 30.9167 27.65 30.15C27.65 29.3833 27.9083 28.7417 28.425 28.225C28.9417 27.7083 29.5833 27.45 30.35 27.45C31.1167 27.45 31.7583 27.7083 32.275 28.225C32.7917 28.7417 33.05 29.3833 33.05 30.15C33.05 30.9167 32.7917 31.5583 32.275 32.075C31.7583 32.5917 31.1167 32.85 30.35 32.85ZM24 45C28.7333 45 32.75 43.35 36.05 40.05C39.35 36.75 41 32.7333 41 28C41 27.1333 40.9333 26.2833 40.8 25.45C40.6667 24.6167 40.5 23.85 40.3 23.15C39.6333 23.3167 38.9083 23.4333 38.125 23.5C37.3417 23.5667 36.5333 23.6 35.7 23.6C32.4667 23.6 29.4083 22.9333 26.525 21.6C23.6417 20.2667 21.1833 18.3667 19.15 15.9C18.0167 18.6 16.3917 20.9583 14.275 22.975C12.1583 24.9917 9.73333 26.55 7 27.65V28C7 32.7333 8.65 36.75 11.95 40.05C15.25 43.35 19.2667 45 24 45ZM19.4 11.65C22.3333 15.0833 25.0417 17.4333 27.525 18.7C30.0083 19.9667 32.7333 20.6 35.7 20.6C36.5 20.6 37.1333 20.5833 37.6 20.55C38.0667 20.5167 38.5833 20.4167 39.15 20.25C37.65 17.55 35.6083 15.3333 33.025 13.6C30.4417 11.8667 27.4333 11 24 11C23.1 11 22.25 11.0667 21.45 11.2C20.65 11.3333 19.9667 11.4833 19.4 11.65ZM7.45 24.1C9.05 23.5 10.875 22.1417 12.925 20.025C14.975 17.9083 16.4333 15.35 17.3 12.35C14.4 13.65 12.2083 15.3083 10.725 17.325C9.24167 19.3417 8.15 21.6 7.45 24.1ZM5.85 19.55C6.85 17.4167 8.18333 15.5167 9.85 13.85C11.5167 12.1833 13.4167 10.85 15.55 9.85C14.9167 8.98333 14.1167 8.29167 13.15 7.775C12.1833 7.25833 11.1167 7 9.95 7C8.01667 7 6.375 7.675 5.025 9.025C3.675 10.375 3 12.0167 3 13.95C3 15.1167 3.25833 16.1833 3.775 17.15C4.29167 18.1167 4.98333 18.9167 5.85 19.55ZM24 48C21.2333 48 18.6333 47.475 16.2 46.425C13.7667 45.375 11.65 43.95 9.85 42.15C8.05 40.35 6.625 38.2333 5.575 35.8C4.525 33.3667 4 30.7667 4 28C4 27.0333 4.06667 26.075 4.2 25.125C4.33333 24.175 4.53333 23.2667 4.8 22.4C3.36667 21.5333 2.20833 20.3583 1.325 18.875C0.441667 17.3917 0 15.75 0 13.95C0 11.1833 0.966667 8.83333 2.9 6.9C4.83333 4.96667 7.18333 4 9.95 4C11.7167 4 13.3417 4.425 14.825 5.275C16.3083 6.125 17.5 7.3 18.4 8.8C19.2667 8.53333 20.175 8.33333 21.125 8.2C22.075 8.06667 23.0333 8 24 8C26.7667 8 29.3667 8.525 31.8 9.575C34.2333 10.625 36.35 12.05 38.15 13.85C39.95 15.65 41.375 17.7667 42.425 20.2C43.475 22.6333 44 25.2333 44 28C44 30.7667 43.475 33.3667 42.425 35.8C41.375 38.2333 39.95 40.35 38.15 42.15C36.35 43.95 34.2333 45.375 31.8 46.425C29.3667 47.475 26.7667 48 24 48Z" fill="white"/>
</svg>
