<svg width="28" height="28" viewBox="0 0 28 28" fill="none" xmlns="http://www.w3.org/2000/svg">
<g clip-path="url(#clip0_134_176)">
<path d="M14 2.625C7.71641 2.625 2.625 7.71641 2.625 14V16.1875C2.625 16.9148 2.03984 17.5 1.3125 17.5C0.585156 17.5 0 16.9148 0 16.1875V14C0 6.26719 6.26719 0 14 0C21.7328 0 28 6.26719 28 14V21.8805C28 24.5383 25.8453 26.693 23.182 26.693L17.15 26.6875C16.6961 27.4695 15.8484 28 14.875 28H13.125C11.6758 28 10.5 26.8242 10.5 25.375C10.5 23.9258 11.6758 22.75 13.125 22.75H14.875C15.8484 22.75 16.6961 23.2805 17.15 24.0625L23.1875 24.068C24.3961 24.068 25.375 23.0891 25.375 21.8805V14C25.375 7.71641 20.2836 2.625 14 2.625ZM7.875 11.375H8.75C9.71797 11.375 10.5 12.157 10.5 13.125V19.25C10.5 20.218 9.71797 21 8.75 21H7.875C5.94453 21 4.375 19.4305 4.375 17.5V14.875C4.375 12.9445 5.94453 11.375 7.875 11.375ZM20.125 11.375C22.0555 11.375 23.625 12.9445 23.625 14.875V17.5C23.625 19.4305 22.0555 21 20.125 21H19.25C18.282 21 17.5 20.218 17.5 19.25V13.125C17.5 12.157 18.282 11.375 19.25 11.375H20.125Z" fill="white"/>
</g>
<defs>
<clipPath id="clip0_134_176">
<rect width="28" height="28" fill="white"/>
</clipPath>
</defs>
</svg>
