<svg width="30" height="30" viewBox="0 0 30 30" fill="none" xmlns="http://www.w3.org/2000/svg">
<path d="M14.1562 21.25H16.0312V13.75H14.1562V21.25ZM15 11.4375C15.2917 11.4375 15.5365 11.3438 15.7344 11.1562C15.9323 10.9688 16.0312 10.7292 16.0312 10.4375C16.0312 10.1458 15.9323 9.89583 15.7344 9.6875C15.5365 9.47917 15.2917 9.375 15 9.375C14.7083 9.375 14.4635 9.47917 14.2656 9.6875C14.0677 9.89583 13.9688 10.1458 13.9688 10.4375C13.9688 10.7292 14.0677 10.9688 14.2656 11.1562C14.4635 11.3438 14.7083 11.4375 15 11.4375ZM15 27.5C13.2917 27.5 11.6771 27.1719 10.1562 26.5156C8.63542 25.8594 7.30729 24.9635 6.17188 23.8281C5.03646 22.6927 4.14062 21.3646 3.48437 19.8438C2.82812 18.3229 2.5 16.6979 2.5 14.9688C2.5 13.2604 2.82812 11.6458 3.48437 10.125C4.14062 8.60417 5.03646 7.28125 6.17188 6.15625C7.30729 5.03125 8.63542 4.14062 10.1562 3.48437C11.6771 2.82812 13.3021 2.5 15.0312 2.5C16.7396 2.5 18.3542 2.82812 19.875 3.48437C21.3958 4.14062 22.7188 5.03125 23.8438 6.15625C24.9688 7.28125 25.8594 8.60417 26.5156 10.125C27.1719 11.6458 27.5 13.2708 27.5 15C27.5 16.7083 27.1719 18.3229 26.5156 19.8438C25.8594 21.3646 24.9688 22.6927 23.8438 23.8281C22.7188 24.9635 21.3958 25.8594 19.875 26.5156C18.3542 27.1719 16.7292 27.5 15 27.5ZM15.0312 25.625C17.9687 25.625 20.4688 24.5885 22.5312 22.5156C24.5938 20.4427 25.625 17.9271 25.625 14.9688C25.625 12.0313 24.5938 9.53125 22.5312 7.46875C20.4688 5.40625 17.9583 4.375 15 4.375C12.0625 4.375 9.55729 5.40625 7.48438 7.46875C5.41146 9.53125 4.375 12.0417 4.375 15C4.375 17.9375 5.41146 20.4427 7.48438 22.5156C9.55729 24.5885 12.0729 25.625 15.0312 25.625Z" fill="white"/>
</svg>
