<svg width="47" height="47" viewBox="0 0 47 47" fill="none" xmlns="http://www.w3.org/2000/svg">
<path d="M46.3608 40.6345L37.208 31.4833C36.7949 31.0702 36.2349 30.8407 35.6473 30.8407H34.1509C36.6847 27.6006 38.1903 23.5252 38.1903 19.0919C38.1903 8.54545 29.6434 0 19.0951 0C8.54691 0 0 8.54545 0 19.0919C0 29.6383 8.54691 38.1838 19.0951 38.1838C23.5293 38.1838 27.6053 36.6785 30.846 34.1451V35.6412C30.846 36.2287 31.0755 36.7886 31.4886 37.2016L40.6414 46.3529C41.5044 47.2157 42.8998 47.2157 43.7536 46.3529L46.3516 43.7553C47.2146 42.8925 47.2146 41.4973 46.3608 40.6345ZM19.0951 30.8407C12.6046 30.8407 7.34429 25.5905 7.34429 19.0919C7.34429 12.6025 12.5955 7.34303 19.0951 7.34303C25.5857 7.34303 30.846 12.5933 30.846 19.0919C30.846 25.5813 25.5948 30.8407 19.0951 30.8407Z" fill="white"/>
</svg>
